v -11.95720196 20.70677757 51.92942047
vn 0.6963130832 -0.7169241309 -0.0341749154
v -14.43148899 19.42334938 54.42150497
vn 0.3191770911 -0.9469966292 0.03637867048
v -18.82013702 19.02727509 57.55168915
vn -0.07378670573 -0.9930543303 0.09164367616
v -22.27603912 19.69668198 61.42203903
vn -0.658008635 -0.7513424754 0.05009126291
v -24.74439812 23.88633156 62.89994049
vn -0.934977591 -0.3367275596 0.1114966273
v -12.37027359 30.89963341 48.49917984
vn 0.5956990719 0.715013206 -0.3659217656
v -20.17135811 34.29131317 53.15416336
vn -0.397741735 0.8537974358 -0.335903883
v -23.49628067 33.88631821 57.01339722
vn -0.6547071934 0.7057598829 -0.2706685364
v -25.19768143 33.40241241 61.06892776
vn -0.949588716 0.3059163392 -0.06853080541
v -25.26572227 30.04467964 64.72298431
vn -0.9903915524 -0.02087155171 0.1367076486
v -23.73744011 21.55999756 65.04950714
vn -0.8726813197 -0.4764592052 -0.1068359688
v -12.07346725 24.45994759 41.77083588
vn 0.4694545269 0.1235502437 -0.8742698431
v -10.15885925 25.11450958 49.1342659
vn 0.9812181592 -0.07062769681 -0.1795065403
v -12.10209656 21.16915321 44.27269363
vn 0.8557990193 -0.4819888175 -0.1878692806
v -18.34921455 18.22920227 51.30386353
vn -0.01911863685 -0.9993410707 -0.03085295111
v -20.33641052 19.91490746 41.64588165
vn -0.3344147503 -0.5823417902 -0.7409755588
v -22.21632195 19.26649284 51.56943893
vn -0.4583430588 -0.8884215951 -0.02507400885
v -23.3845787 20.98209953 45.71791077
vn -0.7929982543 -0.5828559995 -0.1772926748
v -24.75741959 24.47107124 45.82508087
vn -0.9215331674 -0.05726146698 -0.3840543032
v -24.91790581 22.18409348 54.67805481
vn -0.8821513057 -0.4709653854 0.0008516856469
v -26.39644241 26.91536522 56.05361176
vn -0.9985275865 -0.05406979844 0.004367974587
v -25.35035133 29.00658417 50.17797089
vn -0.861379683 0.4096346796 -0.3003738225
v -20.35699654 27.73853683 41.79995728
vn -0.3578678966 0.4215573072 -0.8331986666
v -22.63755226 31.65950584 49.38486481
vn -0.5507566929 0.7310641408 -0.4027558565
v -19.03858566 31.9692688 46.86232758
vn -0.137533769 0.8527203798 -0.5039369464
v -11.84727001 28.13845062 46.30347824
vn 0.8339002728 0.4166348279 -0.361974746
v -14.61825848 30.02952576 44.51812363
vn 0.2984110117 0.6963543296 -0.652718544
v -14.90888691 19.20899963 42.64742279
vn 0.3079903126 -0.9105965495 -0.2756008506
# mm_gid 0
g mmGroup0
f 5//5 4//4 11//11 
f 23//23 12//12 16//16 
f 14//14 13//13 1//1 
f 12//12 13//13 14//14 
f 28//28 14//14 1//1 
f 2//2 28//28 1//1 
f 15//15 28//28 2//2 
f 16//16 28//28 15//15 
f 17//17 16//16 15//15 
f 18//18 16//16 17//17 
f 19//19 16//16 18//18 
f 23//23 16//16 19//19 
f 3//3 15//15 2//2 
f 17//17 15//15 3//3 
f 20//20 18//18 17//17 
f 19//19 18//18 20//20 
f 4//4 17//17 3//3 
f 20//20 17//17 4//4 
f 21//21 19//19 20//20 
f 5//5 20//20 4//4 
f 21//21 20//20 5//5 
f 10//10 21//21 5//5 
f 9//9 21//21 10//10 
f 22//22 21//21 9//9 
f 22//22 19//19 21//21 
f 23//23 19//19 22//22 
f 8//8 22//22 9//9 
f 24//24 22//22 8//8 
f 23//23 22//22 24//24 
f 7//7 24//24 8//8 
f 25//25 24//24 7//7 
f 25//25 23//23 24//24 
f 27//27 25//25 6//6 
f 26//26 27//27 6//6 
f 13//13 26//26 6//6 
f 23//23 25//25 27//27 
f 12//12 27//27 26//26 
f 12//12 26//26 13//13 
f 12//12 23//23 27//27 
f 28//28 12//12 14//14 
f 28//28 16//16 12//12 
