v -15.59679031 4.435870171 62.6388855
vn -0.8012816906 0.255764097 -0.5408626199
v -14.68589878 5.731731892 63.16493225
vn -0.1987406164 0.9517058134 -0.2340046763
v -12.8039484 3.073952436 62.52915573
vn 0.7910403013 -0.4158754349 -0.4486678839
v -13.35014915 5.145452976 59.64606094
vn 0.1341173351 0.3186291456 -0.9383432269
v -14.97262669 2.711149931 62.16133881
vn -0.3102536201 -0.575247705 -0.7568571568
v -13.07868195 5.117017269 63.27050018
vn 0.8084771633 0.5858612657 -0.05595777184
# mm_gid 0
g mmGroup0
f 3//3 5//5 4//4 
f 1//1 4//4 5//5 
f 4//4 2//2 6//6 
f 1//1 2//2 4//4 
f 6//6 3//3 4//4 
