v 3.642827034 17.58941269 55.19768906
vn 0.03326387703 0.1979888678 -0.979639709
v -10.26671791 17.70668983 55.97479248
vn -0.2450221777 0.1635858119 -0.955616951
v -22.27603912 19.69668198 61.42203903
vn -0.5553509593 0.07665958256 -0.8280752301
v -23.14367104 24.8619976 69.69995117
vn -0.982966125 0.1837202609 -0.004943530075
v 19.20834541 18.97665024 59.42967606
vn 0.5004997253 0.02510800399 -0.8653725386
v 23.14367485 24.86200523 69.69995117
vn 0.939973712 0.3285268545 0.0923012197
v 20.51345634 28.21685982 74.18820953
vn 0.8755415678 0.4495208859 0.1770816743
v -19.55015182 3.676596642 63.51391602
vn -0.8017057776 -0.4667523205 -0.3733766377
v 19.55020714 3.676665306 63.51393127
vn 0.8591157794 -0.5084273219 -0.0584952496
v 20.2846241 7.818494797 74.52531433
vn 0.8965488076 -0.4113358557 0.1643260717
v -21.55060005 14.67792034 64.14415741
vn 0.2783446312 0.1154542714 -0.9535169601
v -18.55507851 7.431351185 63.19388962
vn 0.2628704906 0.2192970514 -0.9395785928
v -17.8765049 4.583578587 61.85872269
vn 0.1843703389 0.2787503898 -0.9424997568
v 4.890913963 -3.219100475 60.5284729
vn -0.1001243368 0.5008651018 -0.8597146273
v 10.7862587 -1.388412595 60.90843582
vn -0.1079984531 0.4498026967 -0.8865742087
v 6.273804188 1.056880474 62.39678192
vn -0.09390376508 0.4035848379 -0.9101106524
v 7.213306427 4.784531116 64.01515198
vn -0.1112611964 0.3101859987 -0.9441427588
v 14.33441067 7.335105419 63.73167801
vn -0.1479592472 0.3228367269 -0.9348179102
v 12.25531197 10.25584793 65.05103302
vn -0.1301152557 0.2103656083 -0.9689253569
v -13.5669632 10.73638058 64.95050812
vn 0.1208196208 0.1641697735 -0.9790050387
v -5.562121868 7.401307106 65.07981873
vn 0.06115204096 0.1827239245 -0.9812605977
v -15.76074791 15.35260487 65.33235931
vn 0.1751298606 0.00872948207 -0.9845066667
v 2.692617893 10.69633484 65.9563446
vn -0.03579567 0.1889132559 -0.9813411236
v -3.463534117 17.36596107 67.06615448
vn 0.07580906898 0.09910354763 -0.9921851754
v -12.93861866 22.46342278 64.83026886
vn 0.2822808325 -0.4415552318 -0.8516727686
v -19.3055954 18.80307579 63.90996552
vn 0.4191751182 -0.5162556767 -0.7468415499
v 7.599773884 16.8224926 66.67783356
vn -0.1148365587 0.08515509963 -0.9897278547
v 21.31542397 14.49798298 64.23757172
vn -0.3245805204 0.0556977801 -0.9442167282
v 19.30560303 18.80311394 63.90997314
vn -0.4064612687 -0.3875474036 -0.827403307
v 21.78571701 11.19178677 62.22887421
vn 0.6537920237 -0.2867492735 -0.7002362609
v 18.74133873 7.297896385 63.09996033
vn -0.2386003137 0.2731901109 -0.9318997264
v 23.7786293 11.74229431 65.28425598
vn 0.9761884212 -0.216880247 -0.004378157202
v 21.19313431 7.326321602 62.47926331
vn 0.5196769834 -0.1623337269 -0.8387988806
v 12.56609058 -2.777708769 61.30897522
vn 0.5355762243 -0.7270259857 -0.429640919
v 13.03944969 -1.902916312 60.41875076
vn 0.3398760557 -0.1389632672 -0.9301469922
v 2.725513935 -5.904748917 58.75421524
vn 0.04903292283 0.2460273802 -0.9680218697
v -13.03940582 -1.902944207 60.41874695
vn -0.5662871003 -0.3318590224 -0.7544458508
v -21.19311905 7.326271057 62.47925568
vn -0.5977787971 -0.1808314025 -0.7809997201
v -23.5880909 15.61552429 63.32826233
vn -0.9629613161 -0.07252122462 -0.2597039342
v -23.73744011 21.55999756 65.04950714
vn -0.9950315356 0.05094414204 -0.08553904295
v -23.65377045 11.640028 66.27980804
vn -0.98352772 -0.1400969774 -0.1142192557
v -23.54858208 22.78368378 72.97366333
vn -0.9996734858 0.02454403043 0.007108791731
v 22.90843582 15.10743237 73.80486298
vn 0.9656312466 -0.1924987286 0.1746438742
v 23.54857826 22.78373718 72.97366333
vn 0.9955676794 0.05265556648 0.07792586833
v 23.73744011 21.56002808 65.04951477
vn 0.996070981 0.03054983914 -0.08312242478
v 13.07870483 5.117040157 63.270504
vn -0.1408860236 0.3122734129 -0.9394873381
v 14.68592167 5.731757164 63.16493988
vn -0.2901577652 0.26175192 -0.9204859734
v 13.42639637 2.667578936 62.29892349
vn -0.1260819882 0.3937087357 -0.9105474949
v -3.412233829 -1.107348323 57.22496033
vn 0.04712647945 0.03287454322 0.9983478189
v -6.250536919 -1.607707977 57.4587326
vn -0.2075763047 -0.9776668549 0.03285655752
v -10.59855366 0.6574355364 56.69256592
vn -0.2823115289 -0.3773283064 -0.8819997311
v -7.941603184 6.145460606 54.84976959
vn -0.1866032481 -0.1111125201 -0.9761317968
v -7.359239101 12.14060116 54.62959671
vn -0.1350011081 0.1018368453 -0.9855982661
v -11.35917282 1.569231391 58.61359024
vn 0.2760185003 0.07122489065 0.9585096836
v -12.15237617 0.9669861197 58.56213379
vn -0.4466370642 -0.7733562589 0.4499282241
v -14.75094795 3.83191967 57.86119843
vn -0.5091534853 -0.2554300427 -0.8218991756
v -18.45186806 8.581695557 60.840065
vn 0.4414858222 0.002022097353 0.8972659707
v -20.10411263 8.757882118 61.36894989
vn -0.6768032908 -0.6603416204 0.3254017532
v -20.14447403 9.905407906 59.98446655
vn -0.6279839873 -0.1208800524 -0.7687809467
v -15.29396629 11.92341232 57.05636978
vn -0.3959864974 0.01663647033 -0.9181056023
v 1.397474051 11.40266132 54.11595917
vn 0.0176383201 0.03371477127 -0.9992758632
v 1.410125017 4.819058895 54.31814957
vn 0.04867583886 -0.1371761411 -0.9893499613
v 0 -1.536309004 55.53955841
vn -0.02889117412 -0.3447296917 -0.938257277
v 1.939456105 -2.415877342 57.06441498
vn 0.1303920299 -0.9721942544 0.1945154071
v 10.32108402 -0.1130009443 58.11391068
vn 0.3950457275 -0.8973253965 0.1968400627
v 10.59855366 0.6574355364 56.69256592
vn 0.3140287399 -0.3561493754 -0.880081594
v 9.005820274 6.308019638 55.13888931
vn 0.2545256317 -0.09673161805 -0.9622160196
v 8.501749039 12.57621765 54.92871094
vn 0.2013324946 0.09770485759 -0.974637866
v 8.665976524 0.06208820269 57.85714722
vn -0.2544135451 0.07946143299 0.9638255239
v 18.3089695 7.581189632 59.02085114
vn 0.5635421276 -0.1532047689 -0.8117564917
v 16.30773163 4.522209167 59.85650635
vn 0.5008946657 -0.7067170143 0.4996554852
v 15.2939558 11.92341042 57.05636597
vn 0.3825586438 0.008346261457 -0.9238935113
v 22.45381546 19.83972168 61.73707199
vn 0.7753699422 -0.05247289687 -0.6293234825
v 13.85980415 18.02279663 57.31842041
vn 0.2693774104 0.1656261683 -0.9486852884
v -4.633097172 24.51590347 62.24175644
vn 0.1490409225 -0.6584247947 0.7377422452
v -3.022851944 20.77330589 61.31864929
vn 0.009230958298 0.2835538089 0.9589118958
v -13.88639641 22.10389709 61.95845413
vn 0.2072195709 -0.5203421712 0.8284347057
v -19.98204803 17.96117973 62.01418304
vn 0.3674080372 -0.2249554396 0.9024446607
v -21.79334641 14.07837677 62.98706436
vn 0.421055913 -0.2042463273 0.8837394118
v -14.92860794 16.61331749 60.94553375
vn -0.1232554913 0.0269236993 0.9920096993
v -17.02954865 8.563204765 60.12493896
vn -0.1681483686 -0.2703389823 0.9479678273
v -11.52050018 10.55267048 62.73405838
vn -0.1924264431 -0.1102741137 0.9750957489
v -16.41556931 7.691380978 59.28744888
vn 0.336573869 0.06995447725 0.9390550852
v -12.07214737 3.729121685 58.91495132
vn -0.2018930763 -0.5761896372 0.7919878364
v -6.450866222 1.282606125 57.12182617
vn 0.003702019341 -0.4619654119 0.8868902326
v -6.508915901 6.006048203 62.07495499
vn -0.1222515851 -0.4514365494 0.8838889003
v -3.021970034 1.136623502 58.84079742
vn -0.06569188088 -0.6968283057 0.7142232656
v -6.753738403 18.72469139 62.76377869
vn -0.06826147437 0.3338892162 0.9401374459
v -5.885602951 14.79598904 63.50617981
vn -0.07911506295 0.04329855368 0.9959247112
v 2.505475998 8.960786819 63.24446869
vn 0.02275394648 -0.1587813348 0.9870515466
v 2.719532967 0.1879412234 57.24946976
vn 0.05774713308 -0.59404248 0.8023582697
v 5.467481136 5.242982388 61.87097549
vn 0.08452732116 -0.5291002393 0.8443388343
v 10.81901836 3.302606106 59.04364777
vn 0.2844020128 -0.6702601314 0.6854683161
v 9.62344265 2.371465921 57.47451401
vn 0.06496027112 -0.3808721304 0.9223429561
v 14.14613628 9.280954361 61.81703568
vn 0.2385398448 -0.2473802716 0.9390962124
v 7.583076477 14.79987526 63.30874634
vn 0.07990574837 0.04884408787 0.9956049919
v 7.997536182 18.56424713 62.56804657
vn 0.1107618734 0.4426362216 0.8898342252
v 14.17420101 15.04220486 61.7946701
vn 0.3917937577 0.1336183697 0.9102987051
v 19.57579231 9.844619751 61.37210464
vn -0.447673887 0.03029318713 0.8936836123
v 17.13313675 8.795228958 59.78862
vn 0.1189619452 -0.1016084477 0.9876860976
v 13.30125618 18.05561638 60.94944382
vn 0.2470518649 0.4149774015 0.8756478429
v 12.92289448 22.61431694 61.97252274
vn -0.5232442617 -0.8506941199 0.0503484644
v 19.24406624 12.89785194 60.7141037
vn -0.3456259668 -0.1017747968 0.9328368306
v 19.71892357 18.4411087 62.08889771
vn -0.8014702201 -0.3937203288 0.4501441419
v 15.03841114 5.45198679 62.74800873
vn -0.1153978929 0.3577144444 -0.9266734719
v 12.80398178 3.073975325 62.52915955
vn -0.117896013 0.3950003386 -0.9110846519
v 15.95700169 3.019317865 61.87338638
vn -0.1714524925 0.379714191 -0.9090771079
# mm_gid 0
g mmGroup0
f 10//10 9//9 32//32 
f 13//13 11//11 12//12 
f 15//15 36//36 14//14 
f 16//16 15//15 14//14 
f 19//19 31//31 18//18 
f 19//19 18//18 17//17 
f 19//19 28//28 31//31 
f 23//23 19//19 17//17 
f 27//27 19//19 23//23 
f 22//22 12//12 11//11 
f 22//22 20//20 12//12 
f 24//24 21//21 20//20 
f 24//24 20//20 22//22 
f 24//24 23//23 21//21 
f 24//24 27//27 23//23 
f 25//25 24//24 22//22 
f 26//26 25//25 22//22 
f 26//26 22//22 11//11 
f 27//27 28//28 19//19 
f 29//29 28//28 27//27 
f 104//104 28//28 29//29 
f 28//28 104//104 30//30 
f 31//31 28//28 30//30 
f 38//38 11//11 13//13 
f 30//30 32//32 33//33 
f 31//31 30//30 33//33 
f 107//107 31//31 33//33 
f 9//9 33//33 32//32 
f 35//35 33//33 9//9 
f 35//35 107//107 33//33 
f 34//34 35//35 9//9 
f 15//15 107//107 35//35 
f 36//36 35//35 34//34 
f 36//36 15//15 35//35 
f 38//38 13//13 37//37 
f 8//8 38//38 37//37 
f 41//41 38//38 8//8 
f 39//39 38//38 41//41 
f 39//39 11//11 38//38 
f 42//42 39//39 41//41 
f 42//42 40//40 39//39 
f 4//4 40//40 42//42 
f 43//43 10//10 32//32 
f 6//6 7//7 44//44 
f 44//44 43//43 32//32 
f 45//45 6//6 44//44 
f 32//32 45//45 44//44 
f 46//46 17//17 18//18 
f 46//46 18//18 47//47 
f 106//106 16//16 17//17 
f 106//106 17//17 46//46 
f 48//48 107//107 15//15 
f 48//48 15//15 16//16 
f 48//48 16//16 106//106 
f 105//105 47//47 18//18 
f 105//105 18//18 31//31 
f 105//105 31//31 107//107 
f 1//1 53//53 2//2 
f 61//61 53//53 1//1 
f 52//52 53//53 61//61 
f 62//62 52//52 61//61 
f 63//63 52//52 62//62 
f 63//63 51//51 52//52 
f 50//50 63//63 64//64 
f 50//50 51//51 63//63 
f 49//49 50//50 64//64 
f 54//54 50//50 49//49 
f 55//55 51//51 50//50 
f 55//55 50//50 54//54 
f 56//56 52//52 51//51 
f 56//56 51//51 55//55 
f 60//60 53//53 52//52 
f 60//60 52//52 56//56 
f 57//57 55//55 54//54 
f 58//58 56//56 55//55 
f 58//58 55//55 57//57 
f 59//59 56//56 58//58 
f 59//59 60//60 56//56 
f 79//79 58//58 57//57 
f 39//39 59//59 58//58 
f 39//39 58//58 79//79 
f 11//11 39//39 79//79 
f 2//2 53//53 60//60 
f 3//3 59//59 39//39 
f 3//3 60//60 59//59 
f 3//3 2//2 60//60 
f 61//61 1//1 68//68 
f 67//67 61//61 68//68 
f 62//62 61//61 67//67 
f 66//66 62//62 67//67 
f 63//63 62//62 66//66 
f 64//64 63//63 66//66 
f 69//69 49//49 64//64 
f 65//65 69//69 64//64 
f 65//65 64//64 66//66 
f 71//71 65//65 66//66 
f 71//71 69//69 65//65 
f 70//70 66//66 67//67 
f 70//70 71//71 66//66 
f 72//72 67//67 68//68 
f 72//72 70//70 67//67 
f 99//99 69//69 71//71 
f 30//30 71//71 70//70 
f 30//30 99//99 71//71 
f 73//73 30//30 70//70 
f 73//73 32//32 30//30 
f 74//74 72//72 68//68 
f 74//74 68//68 1//1 
f 5//5 73//73 70//70 
f 5//5 70//70 72//72 
f 5//5 72//72 74//74 
f 77//77 75//75 25//25 
f 77//77 25//25 26//26 
f 76//76 75//75 77//77 
f 80//80 76//76 77//77 
f 80//80 88//88 76//76 
f 78//78 77//77 26//26 
f 79//79 78//78 11//11 
f 80//80 77//77 78//78 
f 57//57 78//78 79//79 
f 81//81 78//78 57//57 
f 81//81 80//80 78//78 
f 83//83 81//81 57//57 
f 89//89 88//88 80//80 
f 82//82 89//89 80//80 
f 82//82 80//80 81//81 
f 86//86 82//82 81//81 
f 84//84 81//81 83//83 
f 84//84 86//86 81//81 
f 54//54 83//83 57//57 
f 84//84 83//83 54//54 
f 85//85 84//84 54//54 
f 49//49 85//85 54//54 
f 87//87 86//86 84//84 
f 87//87 84//84 85//85 
f 90//90 82//82 86//86 
f 90//90 89//89 82//82 
f 91//91 87//87 85//85 
f 91//91 85//85 49//49 
f 92//92 86//86 87//87 
f 92//92 90//90 86//86 
f 92//92 87//87 91//91 
f 96//96 88//88 89//89 
f 96//96 89//89 90//90 
f 97//97 76//76 88//88 
f 97//97 88//88 96//96 
f 69//69 91//91 49//49 
f 93//93 92//92 91//91 
f 94//94 91//91 69//69 
f 94//94 93//93 91//91 
f 95//95 92//92 93//93 
f 95//95 90//90 92//92 
f 96//96 90//90 95//95 
f 100//100 93//93 94//94 
f 100//100 94//94 69//69 
f 95//95 93//93 100//100 
f 98//98 96//96 95//95 
f 98//98 97//97 96//96 
f 101//101 76//76 97//97 
f 99//99 100//100 69//69 
f 101//101 97//97 98//98 
f 100//100 98//98 95//95 
f 101//101 98//98 100//100 
f 103//103 101//101 100//100 
f 103//103 100//100 99//99 
f 104//104 29//29 102//102 
f 104//104 103//103 99//99 
f 30//30 104//104 99//99 
f 3//3 39//39 40//40 
f 32//32 73//73 45//45 
